<svg xmlns="http://www.w3.org/2000/svg" viewBox="0 0 720 240" role="img" aria-labelledby="title desc">
  <title id="title">Nova Teens</title>
  <desc id="desc">Logo inspirada na arte enviada, com fundo em raios e tipografia vibrante nas cores amarelo, laranja e vermelho.</desc>
  <defs>
    <radialGradient id="bg" cx="50%" cy="48%" r="65%">
      <stop offset="0%" stop-color="#ffff66"/>
      <stop offset="38%" stop-color="#ffb000"/>
      <stop offset="72%" stop-color="#ff5a00"/>
      <stop offset="100%" stop-color="#ff0000"/>
    </radialGradient>
    <linearGradient id="word" x1="0%" y1="0%" x2="0%" y2="100%">
      <stop offset="0%" stop-color="#ffff00"/>
      <stop offset="60%" stop-color="#ffbf00"/>
      <stop offset="100%" stop-color="#ff8c00"/>
    </linearGradient>
    <filter id="shadow" x="-20%" y="-20%" width="140%" height="160%">
      <feDropShadow dx="0" dy="8" stdDeviation="6" flood-color="#4a1100" flood-opacity="0.45"/>
    </filter>
  </defs>

  <rect width="720" height="240" rx="26" fill="url(#bg)"/>

  <g opacity="0.22" stroke="#fff6b8" stroke-width="8">
    <path d="M360 120 L360 -20"/>
    <path d="M360 120 L440 -10"/>
    <path d="M360 120 L530 10"/>
    <path d="M360 120 L610 40"/>
    <path d="M360 120 L730 120"/>
    <path d="M360 120 L610 200"/>
    <path d="M360 120 L530 230"/>
    <path d="M360 120 L440 250"/>
    <path d="M360 120 L360 270"/>
    <path d="M360 120 L280 250"/>
    <path d="M360 120 L190 230"/>
    <path d="M360 120 L110 200"/>
    <path d="M360 120 L-10 120"/>
    <path d="M360 120 L110 40"/>
    <path d="M360 120 L190 10"/>
    <path d="M360 120 L280 -10"/>
  </g>

  <g fill="#181818" opacity="0.92">
    <path d="M80 165c11-28 22-53 46-63 7 20 5 37 4 63z"/>
    <path d="M160 156c12-21 24-39 44-48 6 16 4 28 5 48z"/>
    <path d="M238 164c8-34 19-72 46-97 13 18 15 47 15 97z"/>
    <path d="M330 163c2-27 13-51 28-66 11 17 14 30 18 66z"/>
    <path d="M401 163c6-22 18-42 36-54 12 15 16 29 18 54z"/>
    <path d="M489 163c7-30 26-63 54-79 12 18 13 45 13 79z"/>
    <path d="M595 163c4-17 14-30 30-39 10 12 13 20 16 39z"/>
  </g>

  <g filter="url(#shadow)">
    <text x="360" y="168" text-anchor="middle" font-size="88" font-weight="900" font-family="Impact, Arial Black, sans-serif" fill="url(#word)" stroke="#1a1206" stroke-width="12" paint-order="stroke fill">
      NOVA TEENS
    </text>
    <text x="360" y="168" text-anchor="middle" font-size="88" font-weight="900" font-family="Impact, Arial Black, sans-serif" fill="url(#word)">
      NOVA TEENS
    </text>
  </g>
</svg>
